<svg id="Layer_1" data-name="Layer 1" xmlns="http://www.w3.org/2000/svg" viewBox="0 0 614.85 115.39">
  <defs>
    <style>
      .cls-1 {
        fill: #424243;
      }

      .cls-2 {
        fill: #00a093;
      }

      .cls-3 {
        fill: #382948;
      }

      .cls-4 {
        fill: #8a3b68;
      }
    </style>
  </defs>
  <title>nlbikes</title>
  <path class="cls-1" d="M190.75,52.39L176,30.49v21.9h-6.28V19h6.09l14.75,21.83V19h6.28V52.39h-6Z" transform="translate(0)"/>
  <path class="cls-1" d="M203.91,35.46a17.45,17.45,0,1,1,17.52,17.38h-0.1A17.46,17.46,0,0,1,203.91,35.46Zm6.28,0a11.15,11.15,0,1,0,11.15-11.24,11.15,11.15,0,0,0-11.15,11.24v0Z" transform="translate(0)"/>
  <path class="cls-1" d="M266,52.39l-11.85-16.3h-2.67v16.3h-6.09V19h11.94A8.54,8.54,0,0,1,261,35.27l12.42,17.12H266ZM257.37,30a2.44,2.44,0,0,0,.31-4.87h-6.16V30h5.85Z" transform="translate(0)"/>
  <path class="cls-1" d="M281.48,52.39V25.2h-8.2V19H296V25.2h-8.2V52.39h-6.27Z" transform="translate(0)"/>
  <path class="cls-1" d="M321.22,52.39V36.21H307.67V52.39h-6.28V19h6.28v11h13.54V19h6.28V52.39h-6.27Z" transform="translate(0)"/>
  <path class="cls-1" d="M336.4,52.39V19h22v6.09H342.67V30h13.68v6.23H342.67v9.93h15.27v6.2H336.4Z" transform="translate(0)"/>
  <path class="cls-1" d="M386,52.39l-11.85-16.3h-2.67v16.3h-6.09V19h11.94A8.54,8.54,0,0,1,381,35.27l12.42,17.12H386ZM377.31,30a2.44,2.44,0,0,0,.31-4.87h-6.16V30h5.85Z" transform="translate(0)"/>
  <path class="cls-1" d="M419.89,52.39l-14.8-21.87V52.39h-6.28V19h6.09l14.77,21.83V19H426V52.39h-6.06Z" transform="translate(0)"/>
  <path class="cls-1" d="M449.11,52.39V19h6.28V46.23h17v6.16H449.11Z" transform="translate(0)"/>
  <path class="cls-1" d="M478.16,52.39V19h6.28V52.39h-6.28Z" transform="translate(0)"/>
  <path class="cls-1" d="M491.57,35.39a17.42,17.42,0,0,1,24.17-16,17,17,0,0,1,5.62,3.79l0.89,0.89-4.64,4.08-0.8-.75A10.74,10.74,0,0,0,509,24.26a11.24,11.24,0,1,0,8.2,19V36.3h-9.13V30.07h15.27V45.39l-0.23.28A17.64,17.64,0,0,1,509,52.88a17.46,17.46,0,0,1-17.43-17.49h0Z" transform="translate(0)"/>
  <path class="cls-1" d="M551.34,52.39V36.21H537.8V52.39h-6.28V19h6.28v11h13.54V19h6.28V52.39h-6.28Z" transform="translate(0)"/>
  <path class="cls-1" d="M571.08,52.39V25.2h-8.2V19h22.67V25.2h-8.2V52.39h-6.27Z" transform="translate(0)"/>
  <path class="cls-1" d="M599.67,52.27a21.44,21.44,0,0,1-9.79-5l-0.89-.8,4.12-4.68,0.89,0.8a15.34,15.34,0,0,0,6.89,3.61h0a10.76,10.76,0,0,0,2.11.23,7.36,7.36,0,0,0,3.14-.66,3.65,3.65,0,0,0,2.53-3.38,2.81,2.81,0,0,0-1.59-2.48,13.62,13.62,0,0,0-4.36-1.45c-0.56-.09-5.34-1.08-7.54-2.3a10,10,0,0,1-3.37-3.33,8.71,8.71,0,0,1-1.17-4.5,9.45,9.45,0,0,1,1.64-5.2,11.06,11.06,0,0,1,4.12-3.28A13,13,0,0,1,602,18.63a22.88,22.88,0,0,1,2.48.19A19,19,0,0,1,613.26,23l0.89,0.75-4,4.82-0.89-.75a11.57,11.57,0,0,0-7.35-3,7.14,7.14,0,0,0-2.9.61,3.38,3.38,0,0,0-2.15,2.86,2.51,2.51,0,0,0,1.26,2.29,12.82,12.82,0,0,0,4.4,1.55,4.72,4.72,0,0,1,1,.23,21.31,21.31,0,0,1,6.42,2,9.45,9.45,0,0,1,3.65,3.37,8.72,8.72,0,0,1,1.26,4.64A9.45,9.45,0,0,1,613.16,48a11.43,11.43,0,0,1-4.36,3.47A12.17,12.17,0,0,1,603,52.67,17.31,17.31,0,0,1,599.67,52.27Z" transform="translate(0)"/>
  <path class="cls-1" d="M168.9,97.39V64h12.41a8.64,8.64,0,0,1,8.53,8.53,9,9,0,0,1-.84,3.75,10.54,10.54,0,0,1,2.44,1.87,11,11,0,0,1,3.33,7.92,11.38,11.38,0,0,1-6.93,10.4,10.39,10.39,0,0,1-4.26.89H168.9Zm12.32-22.48a2.35,2.35,0,0,0,2.34-2.34,2.45,2.45,0,0,0-2.34-2.39h-6.09v4.73h6.09Zm2.25,16.35a5.2,5.2,0,0,0,5-5.15,5.11,5.11,0,0,0-5-5.06h-8.34V91.26h8.34Z" transform="translate(0)"/>
  <path class="cls-1" d="M201.53,97.39V64h6.28V97.39h-6.28Z" transform="translate(0)"/>
  <path class="cls-1" d="M225.61,96.54a17.77,17.77,0,0,1-5.53-3.75,16,16,0,0,1-3.75-5.57,16.8,16.8,0,0,1-1.41-6.79,17.43,17.43,0,0,1,25.29-15.55A17.15,17.15,0,0,1,246.35,70L247.1,71l-5,3.7-0.7-.94a11,11,0,0,0-9-4.5,11.24,11.24,0,1,0,9,18l0.7-.89,5,3.65-0.75.94a17.26,17.26,0,0,1-13.91,7A17.76,17.76,0,0,1,225.61,96.54Z" transform="translate(0)"/>
  <path class="cls-1" d="M261.26,97.39V80.89L249.26,64h7.68l7.54,10.54L272,64h7.63l-12,16.86v16.5h-6.39Z" transform="translate(0)"/>
  <path class="cls-1" d="M290.79,96.54a17.77,17.77,0,0,1-5.48-3.75,16,16,0,0,1-3.75-5.57,16.8,16.8,0,0,1-1.45-6.83A17.43,17.43,0,0,1,305.4,64.84,17.15,17.15,0,0,1,311.54,70l0.75,0.94-5,3.7-0.7-.94a11,11,0,0,0-9-4.5,11.24,11.24,0,1,0,9,18l0.7-.89,5,3.65-0.75.94a17.26,17.26,0,0,1-13.91,7A17.76,17.76,0,0,1,290.79,96.54Z" transform="translate(0)"/>
  <path class="cls-1" d="M318.72,97.39V64H325V91.24h17v6.15H318.72Z" transform="translate(0)"/>
  <path class="cls-1" d="M347.77,97.39V64h22v6.09H354V75h13.68v6.23H354V91.2h15.27v6.19H347.77Z" transform="translate(0)"/>
  <path class="cls-1" d="M399,96.54a17.77,17.77,0,0,1-5.53-3.75,16,16,0,0,1-3.75-5.57,16.8,16.8,0,0,1-1.37-6.83A17.43,17.43,0,0,1,413.6,64.84,17.15,17.15,0,0,1,419.74,70l0.75,0.94-5,3.7-0.7-.94a11,11,0,0,0-9-4.5,11.24,11.24,0,1,0,9,18l0.7-.89,5,3.65-0.75.94a17.26,17.26,0,0,1-13.91,7A17.75,17.75,0,0,1,399,96.54Z" transform="translate(0)"/>
  <path class="cls-1" d="M462.75,94.19a3.5,3.5,0,0,1,1.08-2.58A3.64,3.64,0,1,1,462.75,94.19Z" transform="translate(0)"/>
  <path class="cls-2" d="M43.92,64.56l-4.27,7.86A22.31,22.31,0,0,0,8.9,93.07,23.15,23.15,0,0,0,9,95.57,63.07,63.07,0,0,1,21.4,15.69a28.57,28.57,0,0,1,2.08,5.39,75.62,75.62,0,0,1,2.72,28c-0.2,2.21.22,5.33,2.44,5.39,1.26,0,2.21-1.08,3-2.08l0.59-.79,8.19-10.92c1.92,3,2.41,6.67,2.76,10.22,0,0.28,0,.56.08,0.85-4-.26-7.86-0.33-9.95-0.4H32.94l-0.14,0-0.1.06a0.85,0.85,0,0,0-.3.27,1.76,1.76,0,0,0-.18.32,2.78,2.78,0,0,0-.09.31,1.15,1.15,0,0,0,0,.16,1.9,1.9,0,0,0,0,.23V53a7.69,7.69,0,0,0,.48,2.72h0a9.06,9.06,0,0,0,.38.9,4.89,4.89,0,0,0,.8,1.2c1.71,1.8,4.72,1.71,8.16,1.3l2,3.71C43.89,63.39,43.91,64,43.92,64.56Z" transform="translate(0)"/>
  <path class="cls-3" d="M120.66,88.63a64.61,64.61,0,0,1-3.59,6.93,21.41,21.41,0,0,0,.14-2.49A22.35,22.35,0,0,0,99,71.15a22.92,22.92,0,0,0-4.11-.38,22.17,22.17,0,0,0-8.46,1.66L84.59,69l-2.87-5.29,2.84-5.22,3.06-5.64h4.64c2.4,0,6.47,4.07,6.47,6.47a2.4,2.4,0,0,0,4.81,0c0-5.06-6.24-11.29-11.29-11.29H87.72a46.3,46.3,0,0,0,.43-16c-1.62-11.14-6.73-21.44-12.94-30.9A63.11,63.11,0,0,1,120.66,88.63Z" transform="translate(0)"/>
  <path class="cls-4" d="M44.38,63.72l-0.46.84c0-.59,0-1.17,0-1.75Z" transform="translate(0)"/>
  <path class="cls-4" d="M87.72,48.05H86.16A2.39,2.39,0,0,0,84,49.31l-6.51,12h-29l-1.59-2.93c3.52-.61,8.69-1.8,8.74-3.47,0.06-1.95-6.3-2.8-12.47-3.22,0-.28-0.05-0.57-0.08-0.85-0.36-3.55-.83-7.22-2.76-10.22L32.2,51.56l-0.59.79c-0.76,1-1.7,2.11-3,2.08C26.42,54.38,26,51.27,26.2,49a75.63,75.63,0,0,0-2.72-28,28.63,28.63,0,0,0-2.08-5.39A63.18,63.18,0,0,1,75.22,1.19c6.2,9.45,11.31,19.76,12.94,30.9A46.3,46.3,0,0,1,87.72,48.05Z" transform="translate(0)"/>
  <path class="cls-1" d="M99,71.15a22.92,22.92,0,0,0-4.11-.38,22.17,22.17,0,0,0-8.46,1.66L84.56,69l-2.87-5.29,2.84-5.22,3.06-5.64h4.64c2.4,0,6.47,4.07,6.47,6.47a2.4,2.4,0,1,0,4.81,0C103.49,54.27,97.26,48,92.2,48h-6A2.39,2.39,0,0,0,84,49.31l-6.51,12h-29l-1.59-2.93c3.52-.61,8.69-1.8,8.74-3.47,0.06-1.95-6.3-2.8-12.47-3.22-4-.26-7.86-0.33-9.95-0.4H32.94l-0.14,0-0.1.05a0.85,0.85,0,0,0-.3.27,1.74,1.74,0,0,0-.18.32,2.42,2.42,0,0,0-.09.31,1.32,1.32,0,0,0,0,.16,2.05,2.05,0,0,0,0,.23,2,2,0,0,0,0,.24,7.72,7.72,0,0,0,.47,2.72h0a9.22,9.22,0,0,0,.38.9,4.9,4.9,0,0,0,.8,1.2c1.7,1.8,4.72,1.71,8.16,1.3l2,3.71,0.5,0.91-0.46.84-4.27,7.86A22.31,22.31,0,0,0,8.9,93.07,23.12,23.12,0,0,0,9,95.59a22.33,22.33,0,0,0,18.33,19.47,22,22,0,0,0,3.81.34,22.33,22.33,0,0,0,22.18-19.9H63a2.41,2.41,0,0,0,2.11-1.25L78.94,68.77l3.23,6a22.3,22.3,0,0,0,12.69,40.64,21.5,21.5,0,0,0,2.4-.14c0.47,0,.93-0.11,1.39-0.19A22.34,22.34,0,0,0,117,95.57a21.41,21.41,0,0,0,.14-2.49A22.35,22.35,0,0,0,99,71.15ZM39.16,108.63a17.49,17.49,0,1,1-1.83-31.95L29.07,91.92a2.44,2.44,0,0,0,0,2.38,2.41,2.41,0,0,0,2.07,1.18H48.51A17.55,17.55,0,0,1,39.16,108.63Zm-4-18L41.54,79a17.57,17.57,0,0,1,6.95,11.67H35.21Zm26.37,0H53.36a22.33,22.33,0,0,0-9.49-15.92l4.67-8.62H74.92Zm35,19.81a16.29,16.29,0,0,1-1.68.09A17.49,17.49,0,0,1,84.47,79l8.27,15.23a2.42,2.42,0,0,0,2.12,1.25,2.38,2.38,0,0,0,.85-0.15l0.3-.14a2.4,2.4,0,0,0,1-3.25h0l-1-1.91L88.72,76.68a17.45,17.45,0,0,1,6.15-1.11,17,17,0,0,1,3,.27,17.49,17.49,0,0,1-1.35,34.63h0Z" transform="translate(0)"/>
  <path class="cls-1" d="M424.31,80.78a17.45,17.45,0,1,1,17.52,17.38h-0.1A17.46,17.46,0,0,1,424.31,80.78Zm6.28,0a11.15,11.15,0,1,0,11.15-11.24,11.15,11.15,0,0,0-11.15,11.24v0Z" transform="translate(0)"/>
</svg>
